<?xml version="1.0" encoding="UTF-8"?>
<svg width="62px" height="62px" viewBox="0 0 62 62" version="1.1" xmlns="http://www.w3.org/2000/svg" xmlns:xlink="http://www.w3.org/1999/xlink">
    <!-- Generator: Sketch 48.2 (47327) - http://www.bohemiancoding.com/sketch -->
    <title>Group</title>
    <desc>Created with Sketch.</desc>
    <defs></defs>
    <g id="Desktop-Copy" stroke="none" stroke-width="1" fill="none" fill-rule="evenodd" transform="translate(-139.000000, -493.000000)">
        <g id="Group" transform="translate(495.000000, 355.500000) rotate(-270.000000) translate(-495.000000, -355.500000) translate(287.500000, -5.500000)"></g>
        <text id="%" font-family="PTSans-CaptionBold, PT Sans Caption" font-size="15" font-weight="bold" fill="#9B9B9B">
            <tspan x="164" y="529">%</tspan>
        </text>
        <path d="M185.96618,550.572186 C171.290767,559.390064 152.245692,554.641594 143.427814,539.96618 C134.609936,525.290767 139.358406,506.245692 154.03382,497.427814 C168.709233,488.609936 187.754308,493.358406 196.572186,508.03382 C205.390064,522.709233 200.641594,541.754308 185.96618,550.572186 Z M170,534 C175.522847,534 180,529.522847 180,524 C180,518.477153 175.522847,514 170,514 C164.477153,514 160,518.477153 160,524 C160,529.522847 164.477153,534 170,534 Z" id="Combined-Shape" fill="#79AAC5"></path>
        <path d="M164.017956,515.985811 L153.184802,497.956415 C153.463998,497.776381 153.747013,497.600144 154.03382,497.427814 C168.709233,488.609936 187.754308,493.358406 196.572186,508.03382 C205.390064,522.709233 200.641594,541.754308 185.96618,550.572186 C185.679374,550.744517 185.390899,550.911666 185.100863,551.073661 L174.268615,533.045773 C177.656327,531.444333 180,527.995863 180,524 C180,518.477153 175.522847,514 170,514 C167.756843,514 165.68619,514.738576 164.017956,515.985811 Z" id="Combined-Shape" fill="#DE661F"></path>
    </g>
</svg>